# xmcd
#
# Track frame offsets:
#	150
#	12298
#	28401
#	43928
#	56379
#	69978
#	85026
#	100966
#	116658
#	132611
#	145792
#	160136
#	177159
#
# Disc length: 2538 seconds
#
# Revision: 0
# Processed by: cddbd v1.5.2PL0 Copyright (c) Steve Scherf et al.
# Submitted via: EasyCDDAExtractor 10.0.5.1
#
DISCID=b109e80d
DTITLE=Anne Nørdsti - Her Vil Jeg Bo
DYEAR=2006
DGENRE=Pop
TTITLE0=Når Jentene Kommer (Er Festen I Gang)
TTITLE1=Hjembygda Mi
TTITLE2=Jeg Tenner Et Lys
TTITLE3=Kom Å Ta Omkring Meg
TTITLE4=Harry
TTITLE5=Her Vil Jeg Bo
TTITLE6=Resten Av Mitt Liv
TTITLE7=Jeg Tar Fri
TTITLE8=Alle Kan Hjelpe Til
TTITLE9=Engel I Natt
TTITLE10=Mjøsas Hvite Svane
TTITLE11=Det Hender I Blant
TTITLE12=Si Meg (Sig Mig)
EXTD=
EXTT0=
EXTT1=
EXTT2=
EXTT3=
EXTT4=
EXTT5=
EXTT6=
EXTT7=
EXTT8=
EXTT9=
EXTT10=
EXTT11=
EXTT12=
PLAYORDER=
